<svg xmlns:dc="http://purl.org/dc/elements/1.1/" xmlns:cc="http://creativecommons.org/ns#" xmlns:rdf="http://www.w3.org/1999/02/22-rdf-syntax-ns#" xmlns:svg="http://www.w3.org/2000/svg" xmlns="http://www.w3.org/2000/svg" xmlns:sodipodi="http://sodipodi.sourceforge.net/DTD/sodipodi-0.dtd" xmlns:inkscape="http://www.inkscape.org/namespaces/inkscape" id="Warstwa_1" width="61.40979mm" height="49.133125mm" viewBox="0 0 232.09999 185.7" enable-background="new 0 0 585.7 320" sodipodi:docname="purenet-ikona-strony-www (2).svg" inkscape:version="0.92.1 r15371"><defs id="defs17"/><sodipodi:namedview pagecolor="#ffffff" bordercolor="#666666" borderopacity="1" objecttolerance="10" gridtolerance="10" guidetolerance="10" inkscape:pageopacity="0" inkscape:pageshadow="2" inkscape:window-width="640" inkscape:window-height="480" id="namedview15" showgrid="false" units="mm" fit-margin-top="0" fit-margin-left="0" fit-margin-right="0" fit-margin-bottom="0" inkscape:zoom=".65221102" inkscape:cx="116.05001" inkscape:cy="38.4" inkscape:window-x="0" inkscape:window-y="0" inkscape:window-maximized="0" inkscape:current-layer="Warstwa_1"/><g id="g12" transform="translate(-176.8,-12.7)"><g id="g10"><circle cx="281.20001" cy="140.3" r="3.9000001" id="circle2"/><path d="m188.4 20.4h185.7c2.2.0 3.9 1.7 3.9 3.9v31c0 5.1 7.7 5.1 7.7.0v-31c0-6.4-5.2-11.6-11.6-11.6H188.4c-6.4.0-11.6 5.2-11.6 11.6v123.8c0 6.4 5.2 11.6 11.6 11.6h73.5v15.5h-11.6c-2.1.0-3.9 1.7-3.9 3.9.0 2.2 1.7 3.9 3.9 3.9h61.9c2.1.0 3.9-1.7 3.9-3.9.0-2.2-1.7-3.9-3.9-3.9h-11.6v-15.5h11.6c5.2.0 5.1-7.7.0-7.7H188.4c-2.2.0-3.9-1.7-3.9-3.9v-19.3h127.7c2.1.0 3.9-1.7 3.9-3.9.0-2.1-1.7-3.9-3.9-3.9H184.5V24.3c0-2.2 1.7-3.9 3.9-3.9zm81.2 139.3h23.2v15.5h-23.2z" id="path4" inkscape:connector-curvature="0"/><path d="m366.3 175.2c-2.1.0-3.9 1.7-3.9 3.9.0 2.2 1.7 3.9 3.9 3.9 2.1.0 3.9-1.7 3.9-3.9.0-2.2-1.7-3.9-3.9-3.9z" id="path6" inkscape:connector-curvature="0"/><path d="m335.4 198.4h61.9c6.4.0 11.6-5.2 11.6-11.6V78.4c0-6.4-5.2-11.6-11.6-11.6h-61.9c-6.4.0-11.6 5.2-11.6 11.6v108.3c0 6.4 5.2 11.7 11.6 11.7zm-3.9-120c0-2.2 1.7-3.9 3.9-3.9h61.9c2.2.0 3.9 1.7 3.9 3.9v108.3c0 2.2-1.7 3.9-3.9 3.9h-61.9c-2.2.0-3.9-1.7-3.9-3.9z" id="path8" inkscape:connector-curvature="0"/></g></g></svg>